# xmcd
#
# Track frame offsets: 
#        150
#        18611
#        43432
#        63345
#
# Disc length: 1383 seconds
#
# Revision: 0
# Processed by: cddbd v1.5.2PL0 Copyright (c) Steve Scherf et al.
# Submitted via: ExactAudioCopy v0.99pb5
#
DISCID=35056504
DTITLE=Pearl Handled Revolver - Three (Boxed Set)
DYEAR=2009
DGENRE=Blues
TTITLE0=Strangers
TTITLE1=25 Below
TTITLE2=Never Liked You Anyway
TTITLE3=Rainbow
EXTD=
EXTT0=
EXTT1=
EXTT2=
EXTT3=
PLAYORDER=
